<svg xmlns="http://www.w3.org/2000/svg" viewBox="0 0 32 32"><path fill="#57a6d9" d="M4 23h4v4H4z"/><path fill="#d3eaf9" d="M5 24h2v2H5z"/><path fill="#6db5e3" d="M10 23h18v1H10z"/><path fill="#bddbee" d="M10 25h14v1H10zM10 27h16v1H10z"/><path fill="#57a6d9" d="M4 13h4v4H4z"/><path fill="#d3eaf9" d="M5 14h2v2H5z"/><path fill="#6db5e3" d="M10 13h18v1H10z"/><path fill="#bddbee" d="M10 15h14v1H10zM10 17h16v1H10z"/><path fill="#57a6d9" d="M4 3h4v4H4z"/><path fill="#d3eaf9" d="M5 4h2v2H5z"/><path fill="#6db5e3" d="M10 3h18v1H10z"/><path fill="#bddbee" d="M10 5h14v1H10zM10 7h16v1H10z"/></svg>