<svg id="Icons" xmlns="http://www.w3.org/2000/svg" viewBox="0 0 32 32"><rect width="32" height="32" style="fill:none"/><polygon points="13.419 23.452 9.226 27.645 0 18.419 13.419 5 17.613 9.193 20.129 6.677 26.839 13.387 20.968 19.258 26.839 25.129 20.968 31 13.419 23.452" style="fill:#57a6d9"/><polygon points="13.419 22.038 9.226 26.231 1.414 18.419 13.419 6.414 17.613 10.607 20.129 8.091 25.425 13.387 19.554 19.258 25.425 25.129 20.968 29.586 13.419 22.038" style="fill:#d3eaf9"/><circle cx="17" cy="15" r="1" style="fill:#595959"/><circle cx="10" cy="14" r="1" style="fill:#595959"/><circle cx="10" cy="21" r="1" style="fill:#595959"/><path d="M26.83887,13.38721,24.12256,10.6709,19.2417,16.34814A1.00012,1.00012,0,0,0,20,18h2.22607Z" style="fill:#f8f8f8"/><path d="M30.72749,13c-.6084,1.7637-1.3652,2.0449-2.6328,2.0449h-4.584L28.123,9.623,23.64159,4.957h4.2607A2.38146,2.38146,0,0,1,30.48539,7h.4248l-.1993-3H20.25l5.59669,6.1992L20,17H30.46679l.7227-4Z" style="fill:#595959"/></svg>